<mxfile host="app.diagrams.net" modified="2022-04-15T08:52:52.412Z" agent="5.0 (Windows NT 10.0; Win64; x64) AppleWebKit/537.36 (KHTML, like Gecko) Chrome/100.0.4896.75 Safari/537.36 Edg/100.0.1185.39" etag="lTyqmMVHcbrmsE3TdFKK" version="17.4.3" type="github">
  <diagram id="npC7KlR6RIId4h2-YzG2" name="Page-1">
    <mxGraphModel dx="1132" dy="579" grid="0" gridSize="10" guides="1" tooltips="1" connect="1" arrows="1" fold="1" page="1" pageScale="1" pageWidth="827" pageHeight="1169" math="0" shadow="0">
      <root>
        <mxCell id="0" />
        <mxCell id="1" parent="0" />
        <mxCell id="eUIwXEGJnll42uDdhJhX-10" style="edgeStyle=none;rounded=0;orthogonalLoop=1;jettySize=auto;html=1;exitX=0.5;exitY=1;exitDx=0;exitDy=0;entryX=0.5;entryY=0;entryDx=0;entryDy=0;fontSize=12;" parent="1" source="eUIwXEGJnll42uDdhJhX-1" target="eUIwXEGJnll42uDdhJhX-2" edge="1">
          <mxGeometry relative="1" as="geometry" />
        </mxCell>
        <mxCell id="eUIwXEGJnll42uDdhJhX-1" value="&lt;font style=&quot;font-size: 12px&quot;&gt;工业设备固件&lt;br&gt;编程软件启动模块&lt;/font&gt;" style="rounded=0;whiteSpace=wrap;html=1;fontStyle=1" parent="1" vertex="1">
          <mxGeometry x="298" y="50" width="120" height="60" as="geometry" />
        </mxCell>
        <mxCell id="eUIwXEGJnll42uDdhJhX-11" style="edgeStyle=none;rounded=0;orthogonalLoop=1;jettySize=auto;html=1;exitX=0.5;exitY=1;exitDx=0;exitDy=0;entryX=0.5;entryY=0;entryDx=0;entryDy=0;fontSize=12;" parent="1" source="eUIwXEGJnll42uDdhJhX-2" target="eUIwXEGJnll42uDdhJhX-3" edge="1">
          <mxGeometry relative="1" as="geometry" />
        </mxCell>
        <mxCell id="eUIwXEGJnll42uDdhJhX-2" value="&lt;font style=&quot;font-size: 12px&quot;&gt;备份文件导入模块&lt;/font&gt;" style="rounded=0;whiteSpace=wrap;html=1;fontStyle=1" parent="1" vertex="1">
          <mxGeometry x="298" y="134" width="120" height="60" as="geometry" />
        </mxCell>
        <mxCell id="eUIwXEGJnll42uDdhJhX-12" style="edgeStyle=none;rounded=0;orthogonalLoop=1;jettySize=auto;html=1;exitX=0.5;exitY=1;exitDx=0;exitDy=0;fontSize=12;" parent="1" source="eUIwXEGJnll42uDdhJhX-3" target="eUIwXEGJnll42uDdhJhX-4" edge="1">
          <mxGeometry relative="1" as="geometry" />
        </mxCell>
        <mxCell id="eUIwXEGJnll42uDdhJhX-3" value="&lt;font style=&quot;font-size: 12px&quot;&gt;工业设备固件&lt;br&gt;连接模块&lt;/font&gt;" style="rounded=0;whiteSpace=wrap;html=1;fontStyle=1" parent="1" vertex="1">
          <mxGeometry x="298" y="218" width="120" height="60" as="geometry" />
        </mxCell>
        <mxCell id="eUIwXEGJnll42uDdhJhX-13" style="edgeStyle=none;rounded=0;orthogonalLoop=1;jettySize=auto;html=1;exitX=0.5;exitY=1;exitDx=0;exitDy=0;entryX=0.5;entryY=0;entryDx=0;entryDy=0;fontSize=12;" parent="1" source="eUIwXEGJnll42uDdhJhX-4" target="eUIwXEGJnll42uDdhJhX-5" edge="1">
          <mxGeometry relative="1" as="geometry" />
        </mxCell>
        <mxCell id="eUIwXEGJnll42uDdhJhX-4" value="&lt;font style=&quot;font-size: 12px&quot;&gt;备份固件下载模块&lt;/font&gt;" style="rounded=0;whiteSpace=wrap;html=1;fontStyle=1" parent="1" vertex="1">
          <mxGeometry x="298" y="302" width="120" height="60" as="geometry" />
        </mxCell>
        <mxCell id="eUIwXEGJnll42uDdhJhX-14" style="edgeStyle=none;rounded=0;orthogonalLoop=1;jettySize=auto;html=1;exitX=0.5;exitY=1;exitDx=0;exitDy=0;fontSize=12;" parent="1" source="eUIwXEGJnll42uDdhJhX-5" target="eUIwXEGJnll42uDdhJhX-6" edge="1">
          <mxGeometry relative="1" as="geometry" />
        </mxCell>
        <mxCell id="eUIwXEGJnll42uDdhJhX-5" value="&lt;font style=&quot;font-size: 12px&quot;&gt;备份固件下载模块&lt;/font&gt;" style="rounded=0;whiteSpace=wrap;html=1;fontStyle=1" parent="1" vertex="1">
          <mxGeometry x="298" y="386" width="120" height="60" as="geometry" />
        </mxCell>
        <mxCell id="eUIwXEGJnll42uDdhJhX-15" style="edgeStyle=none;rounded=0;orthogonalLoop=1;jettySize=auto;html=1;exitX=1;exitY=0.5;exitDx=0;exitDy=0;entryX=0.5;entryY=1;entryDx=0;entryDy=0;fontSize=12;" parent="1" source="eUIwXEGJnll42uDdhJhX-6" target="eUIwXEGJnll42uDdhJhX-8" edge="1">
          <mxGeometry relative="1" as="geometry" />
        </mxCell>
        <mxCell id="eUIwXEGJnll42uDdhJhX-6" value="&lt;font style=&quot;font-size: 12px&quot;&gt;工业设备固件&lt;br&gt;编程软件关闭模块&lt;/font&gt;" style="rounded=0;whiteSpace=wrap;html=1;fontStyle=1" parent="1" vertex="1">
          <mxGeometry x="298" y="470" width="120" height="60" as="geometry" />
        </mxCell>
        <mxCell id="eUIwXEGJnll42uDdhJhX-7" value="&lt;font style=&quot;font-size: 12px&quot;&gt;故障检测及处理模块&lt;/font&gt;" style="rounded=0;whiteSpace=wrap;html=1;fontStyle=1" parent="1" vertex="1">
          <mxGeometry x="99" y="263" width="120" height="60" as="geometry" />
        </mxCell>
        <mxCell id="eUIwXEGJnll42uDdhJhX-9" style="rounded=0;orthogonalLoop=1;jettySize=auto;html=1;exitX=0.5;exitY=0;exitDx=0;exitDy=0;entryX=1.003;entryY=0.367;entryDx=0;entryDy=0;entryPerimeter=0;fontSize=12;" parent="1" source="eUIwXEGJnll42uDdhJhX-8" target="eUIwXEGJnll42uDdhJhX-1" edge="1">
          <mxGeometry relative="1" as="geometry" />
        </mxCell>
        <mxCell id="eUIwXEGJnll42uDdhJhX-8" value="&lt;font style=&quot;font-size: 12px&quot;&gt;通讯模块&lt;/font&gt;" style="rounded=0;whiteSpace=wrap;html=1;fontStyle=1" parent="1" vertex="1">
          <mxGeometry x="493" y="263" width="120" height="60" as="geometry" />
        </mxCell>
      </root>
    </mxGraphModel>
  </diagram>
</mxfile>
